<?xml version="1.0" encoding="UTF-8"?>
<svg xmlns="http://www.w3.org/2000/svg" xmlns:xlink="http://www.w3.org/1999/xlink" viewBox="0 0 2000 2000">
  <defs>
    <style>
      .cls-1 {
        fill: url(#radial-gradient);
      }

      .cls-1, .cls-2, .cls-3, .cls-4, .cls-5, .cls-6 {
        fill-rule: evenodd;
      }

      .cls-7 {
        isolation: isolate;
      }

      .cls-2 {
        fill: url(#linear-gradient);
      }

      .cls-8 {
        fill: #ff51a8;
      }

      .cls-3, .cls-5 {
        fill: #43a0fd;
      }

      .cls-3, .cls-6 {
        mix-blend-mode: multiply;
      }

      .cls-9, .cls-5 {
        mix-blend-mode: screen;
      }

      .cls-4 {
        fill: #8f003d;
      }

      .cls-5 {
        opacity: .51;
      }

      .cls-6 {
        fill: #d9b6f2;
      }
    </style>
    <linearGradient id="linear-gradient" x1="269.19" y1="290.89" x2="1950.14" y2="290.89" gradientUnits="userSpaceOnUse">
      <stop offset="0" stop-color="#1ca0ff"/>
      <stop offset="1" stop-color="#0d64c5"/>
    </linearGradient>
    <radialGradient id="radial-gradient" cx="81.94" cy="209.44" fx="81.94" fy="209.44" r="212.28" gradientUnits="userSpaceOnUse">
      <stop offset="0" stop-color="#fe3032"/>
      <stop offset="1" stop-color="#8f003d"/>
    </radialGradient>
  </defs>
  <g class="cls-7">
    <g id="OBJECTS">
      <g>
        <g>
          <polygon class="cls-2" points="308.88 352.07 269.19 290.89 308.88 229.71 1897.23 229.71 1950.14 290.89 1897.23 352.07 308.88 352.07"/>
          <polygon class="cls-3" points="1891.74 340.07 1103.57 340.07 315.4 340.07 283.5 290.89 315.4 241.71 1103.57 241.71 1891.74 241.71 1934.27 290.89 1891.74 340.07"/>
          <path class="cls-6" d="m1884.88,325.07l29.56-34.18-.16-.18c-545.91,33.58-1083.65,34.2-1612.76-.05l-.15.23,22.17,34.18h1561.34Z"/>
          <path class="cls-5" d="m323.55,256.71h1561.34s-758.37,25.63-1561.34,0Z"/>
        </g>
        <path class="cls-4" d="m144.26,350.77c-.46,0-.92-.1-1.35-.3l-1.69-.78c-26.98-12.48-53.72-35.42-66.54-57.09-7.54-12.73-11.25-28.19-9.95-41.36,1.98-19.93,17.36-33.85,37.4-33.85,5.51,0,11,1.09,16.3,3.23,9.17,3.7,17.85,10.55,25.84,20.37,7.99-9.82,16.67-16.66,25.84-20.37,5.3-2.14,10.79-3.23,16.3-3.23,20.04,0,35.42,13.92,37.4,33.85,1.31,13.16-2.41,28.62-9.95,41.35-12.82,21.67-39.56,44.61-66.54,57.09l-1.69.78c-.43.2-.89.3-1.35.3Z"/>
        <path class="cls-1" d="m142.56,346.76c-26.43-12.23-52.6-34.65-65.12-55.8-7.2-12.16-10.76-26.89-9.52-39.39,1.81-18.22,15.87-30.94,34.19-30.94,5.1,0,10.17,1.01,15.09,2.99,11.53,4.66,20.69,14.13,27.05,22.62,6.36-8.49,15.52-17.96,27.05-22.62,4.92-1.99,10-2.99,15.09-2.99,18.32,0,32.38,12.72,34.19,30.94,1.24,12.5-2.32,27.23-9.52,39.39-12.52,21.15-38.69,43.58-65.12,55.8l-1.69.78-1.69-.78Z"/>
        <g class="cls-9">
          <path class="cls-8" d="m84.08,257.2c-7.9,0-7.91,12.28,0,12.28s7.91-12.28,0-12.28Z"/>
          <path class="cls-8" d="m98,247.52c-7.16,2.35-12.42,5.18-15.31,2.56-2.84-2.24-.6-12.34,9.46-17.18,10.09-4.87,20.68,1.79,20.53,6.62.09,4.77-7.6,5.38-14.67,8Z"/>
        </g>
      </g>
    </g>
  </g>
</svg>