# Blender 3.6.2
# www.blender.org
mtllib Stone.mtl
o Mt_Isa_III
v -0.808540 -0.065960 -0.830956
v -0.840471 -0.244008 -0.400000
v -0.116570 -0.954321 -1.662562
v -0.254344 -1.110078 -1.200000
v -0.365624 -1.183275 -0.400000
v -0.003751 -0.006022 -2.403254
v -0.181923 -0.323613 -1.957538
v -0.633206 -0.359576 -1.138573
v -0.765624 -0.644008 -0.400000
v -0.900235 -0.964524 0.536560
v -0.926725 -1.024769 1.200000
v -0.868732 -0.935168 1.742262
v -0.965060 -0.475631 0.321936
v -1.088296 -0.400000 1.200000
v -0.916037 -0.400000 1.765819
v -0.478966 -1.115461 0.321936
v -0.400000 -1.134362 1.200000
v -0.400000 -0.928974 1.755311
v -0.798276 -0.792718 0.003227
v -0.400000 -0.400000 1.982197
v -0.807454 0.772740 -1.616185
v -0.807997 0.431345 -1.174653
v -0.840471 0.265458 -0.400000
v -0.807454 0.812982 -1.616185
v -0.807454 0.812982 -1.518350
v -0.003751 0.074884 -2.403254
v -0.359985 0.423812 -2.000143
v -0.716219 0.239407 -1.364289
v -0.776686 0.623283 -0.985017
v -0.781860 0.665458 -0.400000
v -0.400000 0.925566 -1.800214
v -0.466012 1.032255 -1.231010
v -0.381860 1.078108 -0.400000
v -0.931149 0.390618 0.400000
v -0.961571 0.262055 1.200000
v -0.885983 0.092577 1.678831
v -0.789589 0.790618 0.400000
v -0.472195 0.662052 1.235736
v -0.400000 0.234942 1.826886
v -0.389589 0.988979 0.400000
v -0.253658 0.900832 0.992894
v 0.051323 -0.954321 -1.662562
v 0.145195 -1.110078 -1.200000
v 0.291952 -1.183275 -0.400000
v 0.005756 -0.006022 -2.403254
v 0.172254 -0.323613 -1.957538
v 0.515741 -0.400000 -1.200000
v 0.711991 -0.426107 -0.467147
v 0.829824 -0.176844 -0.245244
v 0.311045 -1.070933 0.400000
v 0.160198 -0.909592 1.200000
v 0.045871 -0.836797 1.664820
v 0.711044 -0.671277 0.400000
v 0.560198 -0.612484 1.200000
v 0.347522 -0.379073 1.852447
v 0.900615 -0.271277 0.400000
v 0.951044 -0.212484 1.200000
v 0.897063 -0.098455 1.732241
v 0.005756 0.074884 -2.403254
v 0.384550 0.405076 -1.997650
v 0.770546 0.156242 -1.200000
v 0.797383 0.006390 -0.778578
v 0.400000 0.925566 -1.796475
v 0.400000 1.213851 -1.200000
v 0.400000 1.346193 -0.400000
v 0.810354 0.735267 -1.611199
v 0.902998 0.556242 -1.200000
v 0.948688 0.323834 -0.467147
v 0.810354 0.812981 -1.611199
v 0.902998 0.933268 -1.200000
v 0.963492 1.068086 -0.400000
v 0.144221 0.754013 1.526227
v 0.406533 0.452408 1.843601
v 0.400000 1.218615 0.400000
v 0.406533 0.947543 1.235736
v 0.677554 0.831629 1.650077
v 1.021155 0.400000 0.400000
v 1.035806 0.400000 1.200000
v 0.905279 0.400000 1.736738
v 0.920540 1.029636 0.400000
v 0.884762 0.908805 1.200000
v 0.843309 0.831629 1.650077
vn -0.8336 -0.3415 -0.4342
vn -0.8347 -0.4923 -0.2467
vn -0.9439 -0.2396 -0.2274
vn -0.9722 -0.2154 -0.0923
vn -0.9606 -0.1773 0.2139
vn -0.2732 -0.9611 -0.0400
vn -0.1031 -0.9592 0.2632
vn -0.7333 -0.6647 -0.1429
vn -0.9510 -0.2272 -0.2097
vn -0.7522 -0.5715 -0.3279
vn -0.2193 -0.2327 0.9475
vn -0.9981 -0.0196 -0.0589
vn -1.0000 0.0010 -0.0004
vn -0.8316 -0.2053 -0.5160
vn -0.8271 -0.2597 -0.4984
vn -0.8244 -0.3508 -0.4442
vn -0.9325 -0.2192 -0.2869
vn -0.9879 0.1543 -0.0133
vn -0.4791 0.2724 -0.8344
vn -0.3772 0.9080 -0.1826
vn -0.8375 0.4978 0.2254
vn -0.7561 0.6544 0.0015
vn -0.9899 0.0322 -0.1378
vn -0.9903 0.1085 -0.0873
vn -0.9565 0.1488 0.2511
vn -0.9655 0.2416 -0.0972
vn -0.7693 0.5965 0.2287
vn -0.4944 0.7284 0.4744
vn -0.3601 0.2052 0.9101
vn -0.6068 0.7945 -0.0238
vn -0.4791 0.8325 0.2783
vn -0.0000 -0.9477 -0.3191
vn -0.0000 -0.9958 -0.0911
vn -0.0000 -0.8144 -0.5803
vn -0.0000 -0.4236 -0.9058
vn 0.8404 -0.3907 -0.3756
vn 0.8542 -0.4704 -0.2216
vn 0.0241 -0.9926 0.1190
vn 0.1897 -0.9776 0.0911
vn 0.3113 -0.9074 0.2823
vn 0.8131 -0.5796 -0.0550
vn 0.6404 -0.7353 0.2219
vn 0.6322 -0.6800 0.3714
vn 0.2031 -0.4314 0.8790
vn 0.9126 -0.3879 -0.1292
vn 0.8059 -0.5847 0.0935
vn 0.5786 -0.7382 0.3467
vn -0.0000 -0.0000 -1.0000
vn 0.8190 -0.2406 -0.5210
vn 0.0211 0.7653 -0.6433
vn 0.8316 -0.3166 -0.4563
vn 0.8953 -0.3808 -0.2311
vn 0.0082 0.3654 -0.9308
vn -0.0958 0.9411 -0.3243
vn -0.2606 0.9611 -0.0916
vn 0.8075 -0.3774 -0.4533
vn 0.9397 -0.3026 -0.1592
vn 0.9414 -0.2971 -0.1594
vn 0.4962 0.2652 -0.8267
vn 0.9755 -0.0000 -0.2198
vn 0.4297 0.8224 -0.3729
vn 0.9975 -0.0090 -0.0697
vn 0.4578 0.8739 -0.1632
vn -0.2929 0.6903 0.6616
vn 0.0555 0.1089 0.9925
vn -0.2995 0.9457 0.1266
vn -0.2225 0.9400 0.2586
vn -0.2772 0.8533 0.4417
vn -0.2512 0.7505 0.6113
vn 0.9717 -0.2164 -0.0947
vn 0.9869 -0.1578 -0.0343
vn 0.9805 -0.0828 0.1781
vn 0.2133 -0.0076 0.9770
vn 0.9978 0.0633 -0.0191
vn 0.3935 0.9133 0.1053
vn 0.9760 0.2158 0.0292
vn 0.2241 0.9468 0.2309
vn 0.9547 0.2333 0.1846
vn 0.0699 0.9774 0.1998
vn 0.1739 0.2813 0.9437
s 0
usemtl Mt_Isa_III
f 8//1 7//1 3//1 4//1
f 9//2 8//2 4//2 5//2
f 9//3 2//3 1//3 8//3
f 14//4 13//4 10//4 11//4
f 15//5 14//5 11//5 12//5
f 17//6 11//6 10//6 16//6
f 18//7 12//7 11//7 17//7
f 19//8 9//8 5//8 16//8
f 19//9 13//9 2//9 9//9
f 13//10 19//10 16//10 10//10
f 20//11 15//11 12//11 18//11
f 23//12 22//12 1//12 2//12
f 25//13 24//13 21//13 22//13
f 27//14 26//14 6//14 7//14
f 28//15 27//15 7//15 8//15
f 28//16 22//16 21//16 27//16
f 22//17 28//17 8//17 1//17
f 23//18 30//18 29//18 22//18
f 24//19 31//19 27//19 21//19
f 25//20 32//20 31//20 24//20
f 32//21 25//21 22//21 29//21
f 33//22 32//22 29//22 30//22
f 34//23 23//23 2//23 13//23
f 35//24 34//24 13//24 14//24
f 36//25 35//25 14//25 15//25
f 34//26 37//26 30//26 23//26
f 35//27 38//27 37//27 34//27
f 36//28 39//28 38//28 35//28
f 39//29 36//29 15//29 20//29
f 40//30 33//30 30//30 37//30
f 41//31 40//31 37//31 38//31
f 43//32 4//32 3//32 42//32
f 44//33 5//33 4//33 43//33
f 46//34 7//34 6//34 45//34
f 7//35 46//35 42//35 3//35
f 46//36 47//36 43//36 42//36
f 47//37 48//37 44//37 43//37
f 50//38 16//38 5//38 44//38
f 51//39 17//39 16//39 50//39
f 52//40 18//40 17//40 51//40
f 48//41 53//41 50//41 44//41
f 53//42 54//42 51//42 50//42
f 54//43 55//43 52//43 51//43
f 55//44 20//44 18//44 52//44
f 56//45 53//45 48//45 49//45
f 57//46 54//46 53//46 56//46
f 58//47 55//47 54//47 57//47
f 26//48 59//48 45//48 6//48
f 59//49 60//49 46//49 45//49
f 27//50 60//50 59//50 26//50
f 60//51 61//51 47//51 46//51
f 61//52 62//52 48//52 47//52
f 31//53 63//53 60//53 27//53
f 32//54 64//54 63//54 31//54
f 33//55 65//55 64//55 32//55
f 67//56 61//56 60//56 66//56
f 68//57 62//57 61//57 67//57
f 62//58 68//58 49//58 48//58
f 63//59 69//59 66//59 60//59
f 69//60 70//60 67//60 66//60
f 64//61 70//61 69//61 63//61
f 70//62 71//62 68//62 67//62
f 65//63 71//63 70//63 64//63
f 39//64 73//64 72//64 38//64
f 73//65 39//65 20//65 55//65
f 40//66 74//66 65//66 33//66
f 41//67 75//67 74//67 40//67
f 75//68 41//68 38//68 72//68
f 76//69 75//69 72//69 73//69
f 68//70 77//70 56//70 49//70
f 77//71 78//71 57//71 56//71
f 78//72 79//72 58//72 57//72
f 79//73 73//73 55//73 58//73
f 71//74 80//74 77//74 68//74
f 74//75 80//75 71//75 65//75
f 80//76 81//76 78//76 77//76
f 75//77 81//77 80//77 74//77
f 81//78 82//78 79//78 78//78
f 76//79 82//79 81//79 75//79
f 82//80 76//80 73//80 79//80
