# Blender 3.6.2
# www.blender.org
mtllib Stone1.mtl
o StylizedStones_Batch_01_07
v -1.177039 0.493606 -0.058671
v -1.013876 0.770276 -0.104981
v -1.155511 0.772863 -0.003199
v -1.235049 0.467059 -0.026961
v -1.418576 0.617082 -0.072968
v -1.317114 0.532413 -0.026495
v -1.242431 0.859978 -0.051100
v -1.422927 0.705081 -0.093586
v -1.134791 0.890205 -0.190100
v -0.966007 0.797417 -0.182904
v -1.063152 0.894596 -0.260379
v -1.119747 0.506531 -0.171043
v -1.095832 0.506173 -0.255331
v -0.974720 0.721838 -0.256076
v -1.243620 0.444740 -0.130892
v -1.263610 0.424413 -0.235089
v -1.165551 0.469448 -0.420054
v -1.267804 0.431204 -0.288806
v -1.428823 0.543061 -0.362417
v -1.430016 0.555824 -0.277451
v -1.442033 0.742058 -0.259966
v -1.328556 0.861623 -0.280473
v -1.030932 0.716393 -0.423251
v -1.022322 0.856462 -0.292333
v -1.060896 0.849028 -0.391476
v -1.102026 0.886851 -0.372441
v -1.091326 0.847426 -0.462526
v -1.130077 0.880677 -0.452645
v -1.054259 0.714272 -0.491779
v -1.216765 0.872784 -0.441627
v -1.216990 0.876654 -0.327192
v -1.301862 0.857443 -0.430495
v -1.441298 0.711196 -0.388794
v -1.068982 0.709652 -0.533591
v -1.115110 0.853821 -0.508036
v -1.149154 0.877434 -0.505993
v -1.216203 0.871427 -0.518226
v -1.279030 0.858180 -0.530269
v -1.441828 0.691820 -0.476220
v -1.437181 0.597754 -0.468291
v -1.162066 0.523071 -0.542230
v -1.159592 0.551371 -0.597700
v -1.430365 0.636954 -0.573482
v -1.319011 0.627405 -0.626119
v -1.210044 0.612814 -0.681363
v -1.156743 0.581832 -0.658249
v -1.089425 0.704778 -0.577528
v -1.138301 0.851858 -0.557583
v -1.167930 0.873629 -0.562163
v -1.214567 0.870423 -0.599890
v -1.265607 0.852362 -0.639902
v -1.441211 0.668669 -0.568865
v -1.223328 0.728773 -0.658304
vn 0.5329 -0.1757 0.8277
vn 0.5681 -0.2096 0.7958
vn -0.3237 0.1267 0.9376
vn -0.0464 -0.0654 0.9968
vn -0.3517 0.1566 0.9229
vn -0.3582 0.1962 0.9128
vn 0.4162 0.7666 0.4890
vn 0.4139 0.7196 0.5576
vn 0.3772 0.7778 0.5027
vn 0.4239 0.7681 0.4800
vn 0.8265 -0.4216 0.3729
vn 0.8288 -0.4285 0.3599
vn 0.8463 -0.4744 0.2422
vn 0.8363 -0.4280 0.3425
vn 0.4788 -0.8659 0.1445
vn 0.4768 -0.8666 0.1468
vn 0.4778 -0.8674 0.1393
vn 0.4450 -0.8912 0.0885
vn 0.3930 -0.9187 0.0385
vn 0.4191 -0.8961 -0.1460
vn -0.6006 -0.7919 0.1105
vn -0.6107 -0.7901 -0.0522
vn -0.6384 -0.7268 0.2534
vn -0.6313 -0.7294 0.2634
vn -0.6219 -0.7805 -0.0642
vn -0.6498 -0.7304 0.2104
vn -0.9938 -0.0236 0.1089
vn -0.9945 -0.0714 0.0770
vn -0.6636 0.7036 0.2542
vn -0.6853 0.6902 0.2321
vn 0.8442 -0.4637 -0.2688
vn 0.8436 -0.4746 -0.2512
vn 0.9103 0.2290 -0.3449
vn 0.6948 0.7186 0.0302
vn 0.5367 0.7998 -0.2688
vn 0.5871 0.7677 -0.2567
vn 0.5841 0.7677 -0.2634
vn 0.5869 0.7638 -0.2686
vn 0.9071 0.2802 -0.3141
vn 0.9034 0.2203 -0.3680
vn 0.9059 0.2806 -0.3171
vn 0.8668 0.3245 -0.3786
vn -0.1039 0.9938 -0.0402
vn -0.0949 0.9949 -0.0338
vn -0.1473 0.9885 -0.0337
vn -0.1847 0.9809 -0.0602
vn -0.1026 0.9940 -0.0367
vn -0.0958 0.9948 -0.0355
vn -0.2242 0.9738 0.0382
vn -0.1130 0.9924 0.0495
vn -0.7299 0.6673 -0.1485
vn -0.7368 0.6565 -0.1615
vn 0.8558 0.3264 -0.4014
vn 0.8743 0.3410 -0.3455
vn 0.5905 0.7648 -0.2577
vn 0.5540 0.8139 -0.1751
vn -0.0930 0.9955 -0.0183
vn -0.0836 0.9960 -0.0306
vn -0.1817 0.9828 -0.0343
vn -0.2028 0.9790 -0.0188
vn -0.7363 0.6615 -0.1421
vn -0.7311 0.6627 -0.1624
vn -0.9973 -0.0722 0.0116
vn -0.9979 -0.0640 -0.0044
vn -0.9973 -0.0706 0.0217
vn -0.9975 -0.0446 0.0557
vn 0.8768 -0.4490 -0.1720
vn 0.8432 -0.4632 -0.2727
vn 0.8833 -0.4323 -0.1812
vn 0.8689 -0.4215 -0.2594
vn -0.2960 -0.8281 -0.4760
vn -0.3208 -0.8378 -0.4417
vn -0.3280 -0.8496 -0.4130
vn -0.3327 -0.8037 -0.4934
vn -0.3224 -0.8395 -0.4375
vn -0.3208 -0.8553 -0.4068
vn 0.9059 -0.3939 -0.1555
vn 0.8643 -0.3475 -0.3636
vn 0.8454 0.3431 -0.4093
vn 0.8389 0.3368 -0.4277
vn 0.5441 0.8050 -0.2364
vn 0.5938 0.7435 -0.3074
vn -0.0867 0.9961 -0.0140
vn -0.0191 0.9979 -0.0612
vn -0.1919 0.9785 -0.0754
vn -0.3209 0.9469 -0.0181
vn -0.7314 0.6605 -0.1699
vn -0.7409 0.6597 -0.1257
vn -0.9947 -0.0563 -0.0854
vn -0.9399 -0.3326 0.0769
vn -0.3369 -0.8586 -0.3864
vn -0.3316 -0.8768 -0.3482
vn -0.4122 0.0421 -0.9101
vn -0.4284 -0.0150 -0.9035
vn 0.2095 0.2137 -0.9542
vn -0.4461 0.0512 -0.8935
vn 0.4943 0.2237 -0.8400
vn 0.5326 0.2410 -0.8113
vn 0.5216 0.2975 -0.7996
vn 0.5931 0.2753 -0.7566
vn 0.3104 0.2283 -0.9228
vn 0.5308 0.3183 -0.7854
vt 0.158182 0.940141
vt 0.152441 0.923958
vt 0.182242 0.850599
vt 0.205014 0.883944
vt 0.216062 0.954900
vt 0.182867 0.946998
vt 0.234706 0.884265
vt 0.234706 0.943125
vt 0.228751 0.839970
vt 0.965766 0.505097
vt 0.984626 0.517326
vt 0.973550 0.552812
vt 0.950339 0.547170
vt 0.959372 0.428923
vt 0.987191 0.439787
vt 0.007537 0.150416
vt 0.027426 0.156254
vt 0.021162 0.213169
vt 0.001953 0.228967
vt 0.974789 0.408183
vt 0.950520 0.414667
vt 0.001953 0.116807
vt 0.027362 0.112923
vt 0.040451 0.114139
vt 0.068676 0.144684
vt 0.895435 0.051601
vt 0.892969 0.071677
vt 0.847236 0.053271
vt 0.845741 0.040576
vt 0.903644 0.001953
vt 0.845730 0.015146
vt 0.942442 0.391311
vt 0.942449 0.358316
vt 0.843745 0.577254
vt 0.864472 0.571693
vt 0.888663 0.603900
vt 0.852925 0.628365
vt 0.909133 0.533915
vt 0.923383 0.588884
vt 0.062036 0.211179
vt 0.031578 0.245015
vt 0.026912 0.259387
vt 0.056832 0.243823
vt 0.056030 0.257830
vt 0.076477 0.255964
vt 0.075224 0.243708
vt 0.078841 0.210258
vt 0.950960 0.585214
vt 0.979524 0.580894
vt 0.982903 0.601249
vt 0.963796 0.609075
vt 0.944723 0.616738
vt 0.898641 0.632913
vt 0.087320 0.245472
vt 0.089165 0.209011
vt 0.090046 0.254823
vt 0.972291 0.625078
vt 0.984928 0.614800
vt 0.960244 0.634929
vt 0.906082 0.652413
vt 0.861143 0.647546
vt 0.886010 0.662612
vt 0.096670 0.160168
vt 0.109234 0.168128
vt 0.834794 0.120393
vt 0.903644 0.125034
vt 0.879006 0.140481
vt 0.837272 0.134853
vt 0.900650 0.098728
vt 0.829637 0.089400
vt 0.839901 0.150604
vt 0.854476 0.155881
vt 0.122900 0.176500
vt 0.100442 0.207583
vt 0.100273 0.245318
vt 0.104035 0.253206
vt 0.981579 0.642022
vt 0.987191 0.628817
vt 0.974706 0.656546
vt 0.913988 0.673414
vt 0.907872 0.678671
vt 0.848448 0.760308
vt 0.848448 0.698221
vt 0.877549 0.744289
vt 0.855737 0.763521
vt 0.876973 0.710584
vt 0.900156 0.726416
vt 0.913976 0.719471
vt 0.902439 0.683318
vt 0.853315 0.683187
vt 0.860285 0.670911
vt 0.868736 0.668854
s 0
usemtl Bauta_SmallStones
f 4/1/1 1/2/1 2/3/1
f 2/3/2 3/4/2 4/1/2
f 3/4/3 5/5/3 6/6/3
f 6/6/4 4/1/4 3/4/4
f 3/4/5 7/7/5 8/8/5
f 8/8/6 5/5/6 3/4/6
f 2/3/7 9/9/7 7/7/7
f 7/7/8 3/4/8 2/3/8
f 2/10/9 10/11/9 11/12/9
f 11/12/10 9/13/10 2/10/10
f 1/14/11 12/15/11 10/11/11
f 10/11/12 2/10/12 1/14/12
f 12/16/13 13/17/13 14/18/13
f 14/18/14 10/19/14 12/16/14
f 15/20/15 12/15/15 1/14/15
f 1/14/16 4/21/16 15/20/16
f 13/17/17 12/16/17 15/22/17
f 15/22/18 16/23/18 13/17/18
f 18/24/19 17/25/19 13/17/19
f 13/17/20 16/23/20 18/24/20
f 20/26/21 19/27/21 18/28/21
f 18/28/22 16/29/22 20/26/22
f 5/30/23 20/26/23 16/29/23
f 16/29/24 15/31/24 5/30/24
f 4/21/25 6/32/25 5/33/25
f 5/33/26 15/20/26 4/21/26
f 5/34/27 8/35/27 21/36/27
f 21/36/28 20/37/28 5/34/28
f 8/35/29 7/38/29 22/39/29
f 22/39/30 21/36/30 8/35/30
f 17/25/31 23/40/31 14/18/31
f 14/18/32 13/17/32 17/25/32
f 10/19/33 14/18/33 24/41/33
f 24/41/34 11/42/34 10/19/34
f 11/42/35 24/41/35 25/43/35
f 25/43/36 26/44/36 11/42/36
f 28/45/37 26/44/37 25/43/37
f 25/43/38 27/46/38 28/45/38
f 14/18/39 23/40/39 25/43/39
f 25/43/40 24/41/40 14/18/40
f 25/43/41 23/40/41 29/47/41
f 29/47/42 27/46/42 25/43/42
f 31/48/43 26/49/43 28/50/43
f 28/50/44 30/51/44 31/48/44
f 22/39/45 31/48/45 30/51/45
f 30/51/46 32/52/46 22/39/46
f 26/49/47 31/48/47 9/13/47
f 9/13/48 11/12/48 26/49/48
f 7/38/49 9/13/49 31/48/49
f 31/48/50 22/39/50 7/38/50
f 21/36/51 22/39/51 32/52/51
f 32/52/52 33/53/52 21/36/52
f 35/54/53 27/46/53 29/47/53
f 29/47/54 34/55/54 35/54/54
f 36/56/55 28/45/55 27/46/55
f 27/46/56 35/54/56 36/56/56
f 37/57/57 30/51/57 28/50/57
f 28/50/58 36/58/58 37/57/58
f 38/59/59 32/52/59 30/51/59
f 30/51/60 37/57/60 38/59/60
f 39/60/61 33/53/61 32/52/61
f 32/52/62 38/59/62 39/60/62
f 21/36/63 33/53/63 19/61/63
f 19/61/64 20/37/64 21/36/64
f 19/61/65 33/53/65 39/60/65
f 39/60/66 40/62/66 19/61/66
f 17/25/67 41/63/67 29/47/67
f 29/47/68 23/40/68 17/25/68
f 41/63/69 42/64/69 34/55/69
f 34/55/70 29/47/70 41/63/70
f 41/65/71 43/66/71 44/67/71
f 44/67/72 42/68/72 41/65/72
f 19/27/73 40/69/73 17/70/73
f 17/70/74 18/28/74 19/27/74
f 46/71/75 42/68/75 44/67/75
f 44/67/76 45/72/76 46/71/76
f 42/64/77 46/73/77 47/74/77
f 47/74/78 34/55/78 42/64/78
f 48/75/79 35/54/79 34/55/79
f 34/55/80 47/74/80 48/75/80
f 49/76/81 36/56/81 35/54/81
f 35/54/82 48/75/82 49/76/82
f 50/77/83 37/57/83 36/58/83
f 36/58/84 49/78/84 50/77/84
f 51/79/85 38/59/85 37/57/85
f 37/57/86 50/77/86 51/79/86
f 52/80/87 39/60/87 38/59/87
f 38/59/88 51/79/88 52/80/88
f 43/81/89 40/62/89 39/60/89
f 39/60/90 52/80/90 43/81/90
f 41/65/91 17/70/91 40/69/91
f 40/69/92 43/66/92 41/65/92
f 52/82/93 51/83/93 44/84/93
f 44/84/94 43/85/94 52/82/94
f 51/83/95 53/86/95 45/87/95
f 45/87/96 44/84/96 51/83/96
f 46/88/97 45/87/97 53/86/97
f 53/86/98 47/89/98 46/88/98
f 53/86/99 51/83/99 50/90/99
f 50/90/100 49/91/100 53/86/100
f 49/91/101 48/92/101 47/89/101
f 47/89/102 53/86/102 49/91/102
